<?xml version="1.0" encoding="utf-8"?>
<!-- Generator: Adobe Illustrator 22.0.1, SVG Export Plug-In . SVG Version: 6.00 Build 0)  -->
<svg version="1.1" id="Layer_1" xmlns="http://www.w3.org/2000/svg" xmlns:xlink="http://www.w3.org/1999/xlink" x="0px" y="0px"
	 viewBox="0 0 47 24" style="enable-background:new 0 0 47 24;" xml:space="preserve">
<g>
	<g>
		<path d="M46,2H1C0.4,2,0,1.6,0,1s0.4-1,1-1h45c0.6,0,1,0.4,1,1S46.6,2,46,2z"/>
	</g>
	<g>
		<path d="M46,13H1c-0.6,0-1-0.4-1-1s0.4-1,1-1h45c0.6,0,1,0.4,1,1S46.6,13,46,13z"/>
	</g>
	<g>
		<path d="M46,24H1c-0.6,0-1-0.4-1-1s0.4-1,1-1h45c0.6,0,1,0.4,1,1S46.6,24,46,24z"/>
	</g>
</g>
</svg>
